<svg xmlns="http://www.w3.org/2000/svg" xmlns:xlink="http://www.w3.org/1999/xlink" width="500" zoomAndPan="magnify" viewBox="0 0 375 374.999991" height="500" preserveAspectRatio="xMidYMid meet" version="1.0"><defs><g/><clipPath id="006bb24d91"><path d="M 68 216 L 125 216 L 125 232.179688 L 68 232.179688 Z M 68 216 " clip-rule="nonzero"/></clipPath><clipPath id="966f66843c"><path d="M 45.605469 166 L 61 166 L 61 222 L 45.605469 222 Z M 45.605469 166 " clip-rule="nonzero"/></clipPath><clipPath id="a923101070"><path d="M 55 142.929688 L 112 142.929688 L 112 159 L 55 159 Z M 55 142.929688 " clip-rule="nonzero"/></clipPath><clipPath id="db19c1b472"><path d="M 119 153 L 134.855469 153 L 134.855469 209 L 119 209 Z M 119 153 " clip-rule="nonzero"/></clipPath></defs><g clip-path="url(#006bb24d91)"><path fill="#00bf63" d="M 124.457031 221.761719 L 116.332031 216.847656 L 68.824219 231 L 70.433594 232.027344 L 115.878906 232.070312 Z M 124.457031 221.761719 " fill-opacity="1" fill-rule="nonzero"/></g><path fill="#00bf63" d="M 109.910156 212.980469 L 96.566406 204.925781 L 64.171875 214.257812 L 58.65625 223.394531 L 67.125 228.945312 L 72.128906 227.410156 L 78.386719 215.882812 Z M 109.910156 212.980469 " fill-opacity="1" fill-rule="nonzero"/><g clip-path="url(#966f66843c)"><path fill="#00bf63" d="M 55.910156 221.78125 L 60.824219 213.65625 L 46.671875 166.148438 L 45.648438 167.757812 L 45.605469 213.203125 Z M 55.910156 221.78125 " fill-opacity="1" fill-rule="nonzero"/></g><path fill="#00bf63" d="M 64.695312 207.230469 L 72.746094 193.890625 L 63.417969 161.496094 L 54.28125 155.980469 L 48.730469 164.449219 L 50.265625 169.453125 L 61.789062 175.710938 Z M 64.695312 207.230469 " fill-opacity="1" fill-rule="nonzero"/><g clip-path="url(#a923101070)"><path fill="#00bf63" d="M 55.894531 153.234375 L 64.015625 158.148438 L 111.523438 143.996094 L 109.914062 142.972656 L 64.46875 142.929688 Z M 55.894531 153.234375 " fill-opacity="1" fill-rule="nonzero"/></g><path fill="#00bf63" d="M 70.441406 162.019531 L 83.785156 170.070312 L 116.175781 160.742188 L 121.695312 151.605469 L 113.226562 146.054688 L 108.21875 147.585938 L 101.964844 159.113281 Z M 70.441406 162.019531 " fill-opacity="1" fill-rule="nonzero"/><g clip-path="url(#db19c1b472)"><path fill="#00bf63" d="M 124.441406 153.21875 L 119.523438 161.339844 L 133.675781 208.847656 L 134.703125 207.238281 L 134.746094 161.792969 Z M 124.441406 153.21875 " fill-opacity="1" fill-rule="nonzero"/></g><path fill="#00bf63" d="M 115.652344 167.765625 L 107.601562 181.109375 L 116.929688 213.5 L 126.070312 219.019531 L 131.621094 210.550781 L 130.085938 205.542969 L 118.558594 199.289062 Z M 115.652344 167.765625 " fill-opacity="1" fill-rule="nonzero"/><g fill="#00bf63" fill-opacity="1"><g transform="translate(142.891313, 183.482815)"><g><path d="M 2.40625 0 L 2.40625 -22.4375 L 8.8125 -22.4375 L 18.875 -6.53125 L 19.203125 -6.53125 L 18.90625 -22.4375 L 23.703125 -22.4375 L 23.703125 0 L 17.890625 0 L 7.234375 -16.59375 L 6.90625 -16.59375 L 7.171875 0 Z M 2.40625 0 "/></g></g></g><g fill="#00bf63" fill-opacity="1"><g transform="translate(167.980308, 183.482815)"><g><path d="M 12.28125 0.46875 C 10.914062 0.46875 9.691406 0.328125 8.609375 0.046875 C 7.535156 -0.234375 6.601562 -0.640625 5.8125 -1.171875 C 5.019531 -1.703125 4.363281 -2.347656 3.84375 -3.109375 C 3.320312 -3.867188 2.929688 -4.722656 2.671875 -5.671875 C 2.410156 -6.628906 2.28125 -7.675781 2.28125 -8.8125 L 2.28125 -22.4375 L 7.171875 -22.4375 L 7.171875 -8.96875 C 7.171875 -7.789062 7.363281 -6.820312 7.75 -6.0625 C 8.132812 -5.3125 8.703125 -4.757812 9.453125 -4.40625 C 10.203125 -4.050781 11.128906 -3.875 12.234375 -3.875 C 13.367188 -3.875 14.3125 -4.054688 15.0625 -4.421875 C 15.8125 -4.785156 16.375 -5.335938 16.75 -6.078125 C 17.125 -6.828125 17.3125 -7.789062 17.3125 -8.96875 L 17.3125 -22.4375 L 22.203125 -22.4375 L 22.203125 -8.8125 C 22.203125 -7.3125 21.988281 -5.988281 21.5625 -4.84375 C 21.144531 -3.695312 20.523438 -2.726562 19.703125 -1.9375 C 18.878906 -1.144531 17.84375 -0.546875 16.59375 -0.140625 C 15.34375 0.265625 13.90625 0.46875 12.28125 0.46875 Z M 12.28125 0.46875 "/></g></g></g><g fill="#00bf63" fill-opacity="1"><g transform="translate(191.43749, 183.482815)"><g><path d="M 7.140625 0 L 7.140625 -22.4375 L 12.0625 -22.4375 L 12.0625 0 Z M 0.609375 -18.328125 L 0.609375 -22.4375 L 18.625 -22.4375 L 18.625 -18.328125 Z M 0.609375 -18.328125 "/></g></g></g><g fill="#00bf63" fill-opacity="1"><g transform="translate(209.659275, 183.482815)"><g><path d="M 2.40625 0 L 2.40625 -22.4375 L 11.53125 -22.4375 C 12.613281 -22.4375 13.628906 -22.351562 14.578125 -22.1875 C 15.535156 -22.019531 16.40625 -21.765625 17.1875 -21.421875 C 17.96875 -21.078125 18.644531 -20.644531 19.21875 -20.125 C 19.800781 -19.601562 20.238281 -18.984375 20.53125 -18.265625 C 20.832031 -17.554688 20.984375 -16.75 20.984375 -15.84375 C 20.984375 -15.050781 20.863281 -14.335938 20.625 -13.703125 C 20.382812 -13.066406 20.015625 -12.503906 19.515625 -12.015625 C 19.015625 -11.523438 18.382812 -11.128906 17.625 -10.828125 C 16.863281 -10.523438 15.988281 -10.316406 15 -10.203125 L 15 -9.71875 C 16.15625 -9.582031 17.082031 -9.3125 17.78125 -8.90625 C 18.488281 -8.5 19.039062 -7.941406 19.4375 -7.234375 C 19.832031 -6.535156 20.175781 -5.664062 20.46875 -4.625 L 21.796875 0 L 16.390625 0 L 15.375 -4.25 C 15.164062 -5.15625 14.867188 -5.867188 14.484375 -6.390625 C 14.097656 -6.910156 13.613281 -7.269531 13.03125 -7.46875 C 12.457031 -7.675781 11.765625 -7.78125 10.953125 -7.78125 L 7.3125 -7.78125 L 7.3125 0 Z M 7.3125 -11.484375 L 10.46875 -11.484375 C 10.851562 -11.484375 11.285156 -11.492188 11.765625 -11.515625 C 12.242188 -11.546875 12.722656 -11.617188 13.203125 -11.734375 C 13.691406 -11.847656 14.132812 -12.023438 14.53125 -12.265625 C 14.925781 -12.515625 15.253906 -12.867188 15.515625 -13.328125 C 15.773438 -13.785156 15.90625 -14.363281 15.90625 -15.0625 C 15.90625 -15.789062 15.78125 -16.378906 15.53125 -16.828125 C 15.28125 -17.285156 14.960938 -17.640625 14.578125 -17.890625 C 14.203125 -18.140625 13.796875 -18.316406 13.359375 -18.421875 C 12.929688 -18.535156 12.523438 -18.601562 12.140625 -18.625 C 11.753906 -18.65625 11.445312 -18.671875 11.21875 -18.671875 L 7.3125 -18.671875 Z M 7.3125 -11.484375 "/></g></g></g><g fill="#00bf63" fill-opacity="1"><g transform="translate(231.518645, 183.482815)"><g><path d="M 2.40625 0 L 2.40625 -22.4375 L 7.375 -22.4375 L 7.375 0 Z M 2.40625 0 "/></g></g></g><g fill="#00bf63" fill-opacity="1"><g transform="translate(240.289511, 183.482815)"><g><path d="M 7.140625 0 L 7.140625 -22.4375 L 12.0625 -22.4375 L 12.0625 0 Z M 0.609375 -18.328125 L 0.609375 -22.4375 L 18.625 -22.4375 L 18.625 -18.328125 Z M 0.609375 -18.328125 "/></g></g></g><g fill="#00bf63" fill-opacity="1"><g transform="translate(258.511296, 183.482815)"><g><path d="M 2.40625 0 L 2.40625 -22.4375 L 7.375 -22.4375 L 7.375 0 Z M 2.40625 0 "/></g></g></g><g fill="#00bf63" fill-opacity="1"><g transform="translate(267.282162, 183.482815)"><g><path d="M 12.140625 0.46875 C 10.503906 0.46875 9.039062 0.21875 7.75 -0.28125 C 6.457031 -0.789062 5.351562 -1.539062 4.4375 -2.53125 C 3.519531 -3.519531 2.816406 -4.734375 2.328125 -6.171875 C 1.835938 -7.609375 1.59375 -9.257812 1.59375 -11.125 C 1.59375 -13.769531 2.054688 -15.957031 2.984375 -17.6875 C 3.921875 -19.425781 5.191406 -20.734375 6.796875 -21.609375 C 8.410156 -22.484375 10.238281 -22.921875 12.28125 -22.921875 C 13.863281 -22.921875 15.300781 -22.664062 16.59375 -22.15625 C 17.882812 -21.644531 18.988281 -20.894531 19.90625 -19.90625 C 20.820312 -18.914062 21.53125 -17.695312 22.03125 -16.25 C 22.53125 -14.800781 22.78125 -13.125 22.78125 -11.21875 C 22.78125 -9.289062 22.523438 -7.601562 22.015625 -6.15625 C 21.503906 -4.707031 20.785156 -3.488281 19.859375 -2.5 C 18.929688 -1.507812 17.8125 -0.765625 16.5 -0.265625 C 15.195312 0.222656 13.742188 0.46875 12.140625 0.46875 Z M 12.234375 -3.4375 C 12.867188 -3.4375 13.507812 -3.546875 14.15625 -3.765625 C 14.800781 -3.992188 15.398438 -4.378906 15.953125 -4.921875 C 16.515625 -5.472656 16.953125 -6.238281 17.265625 -7.21875 C 17.585938 -8.207031 17.75 -9.453125 17.75 -10.953125 C 17.75 -12.765625 17.515625 -14.253906 17.046875 -15.421875 C 16.585938 -16.585938 15.929688 -17.453125 15.078125 -18.015625 C 14.222656 -18.585938 13.253906 -18.875 12.171875 -18.875 C 11.578125 -18.875 10.957031 -18.765625 10.3125 -18.546875 C 9.664062 -18.328125 9.0625 -17.941406 8.5 -17.390625 C 7.9375 -16.835938 7.484375 -16.0625 7.140625 -15.0625 C 6.796875 -14.0625 6.625 -12.769531 6.625 -11.1875 C 6.625 -9.6875 6.78125 -8.441406 7.09375 -7.453125 C 7.414062 -6.472656 7.84375 -5.6875 8.375 -5.09375 C 8.914062 -4.507812 9.519531 -4.085938 10.1875 -3.828125 C 10.851562 -3.566406 11.535156 -3.4375 12.234375 -3.4375 Z M 12.234375 -3.4375 "/></g></g></g><g fill="#00bf63" fill-opacity="1"><g transform="translate(290.637354, 183.482815)"><g><path d="M 2.40625 0 L 2.40625 -22.4375 L 8.8125 -22.4375 L 18.875 -6.53125 L 19.203125 -6.53125 L 18.90625 -22.4375 L 23.703125 -22.4375 L 23.703125 0 L 17.890625 0 L 7.234375 -16.59375 L 6.90625 -16.59375 L 7.171875 0 Z M 2.40625 0 "/></g></g></g><g fill="#00bf63" fill-opacity="1"><g transform="translate(315.72635, 183.482815)"><g/></g></g><g fill="#00bf63" fill-opacity="1"><g transform="translate(322.457455, 183.482815)"><g><path d="M 0.578125 0 L 8.234375 -22.4375 L 15.328125 -22.4375 L 23.015625 0 L 17.6875 0 L 12.03125 -18.5625 L 11.5625 -18.5625 L 5.875 0 Z M 4.859375 -4.390625 L 4.859375 -7.75 L 19.40625 -7.75 L 19.40625 -4.390625 Z M 4.859375 -4.390625 "/></g></g></g><g fill="#00bf63" fill-opacity="1"><g transform="translate(345.030741, 183.482815)"><g><path d="M 2.40625 0 L 2.40625 -22.4375 L 7.375 -22.4375 L 7.375 0 Z M 2.40625 0 "/></g></g></g><g fill="#ffffff" fill-opacity="1"><g transform="translate(142.891313, 218.154859)"><g><path d="M 1.078125 0 L 1.078125 -7.4375 L 2.015625 -7.4375 L 2.015625 0 Z M 1.078125 0 "/></g></g></g><g fill="#ffffff" fill-opacity="1"><g transform="translate(147.776051, 218.154859)"><g><path d="M 1.078125 0 L 1.078125 -7.4375 L 1.96875 -7.4375 L 6.078125 -1.609375 L 6.078125 -7.4375 L 6.984375 -7.4375 L 6.984375 0 L 6.125 0 L 2.015625 -5.828125 L 2.015625 0 Z M 1.078125 0 "/></g></g></g><g fill="#ffffff" fill-opacity="1"><g transform="translate(157.629665, 218.154859)"><g><path d="M 1.078125 0 L 1.078125 -7.4375 L 1.96875 -7.4375 L 6.078125 -1.609375 L 6.078125 -7.4375 L 6.984375 -7.4375 L 6.984375 0 L 6.125 0 L 2.015625 -5.828125 L 2.015625 0 Z M 1.078125 0 "/></g></g></g><g fill="#ffffff" fill-opacity="1"><g transform="translate(167.48328, 218.154859)"><g><path d="M 4.46875 0.140625 C 3.71875 0.140625 3.050781 -0.0195312 2.46875 -0.34375 C 1.882812 -0.675781 1.425781 -1.132812 1.09375 -1.71875 C 0.769531 -2.300781 0.609375 -2.96875 0.609375 -3.71875 C 0.609375 -4.476562 0.769531 -5.144531 1.09375 -5.71875 C 1.425781 -6.300781 1.882812 -6.753906 2.46875 -7.078125 C 3.050781 -7.410156 3.71875 -7.578125 4.46875 -7.578125 C 5.21875 -7.578125 5.878906 -7.410156 6.453125 -7.078125 C 7.035156 -6.753906 7.488281 -6.300781 7.8125 -5.71875 C 8.144531 -5.144531 8.3125 -4.476562 8.3125 -3.71875 C 8.3125 -2.96875 8.144531 -2.300781 7.8125 -1.71875 C 7.488281 -1.132812 7.035156 -0.675781 6.453125 -0.34375 C 5.878906 -0.0195312 5.21875 0.140625 4.46875 0.140625 Z M 1.578125 -3.71875 C 1.578125 -3.144531 1.695312 -2.640625 1.9375 -2.203125 C 2.1875 -1.765625 2.523438 -1.421875 2.953125 -1.171875 C 3.390625 -0.921875 3.894531 -0.796875 4.46875 -0.796875 C 5.039062 -0.796875 5.539062 -0.921875 5.96875 -1.171875 C 6.40625 -1.421875 6.742188 -1.765625 6.984375 -2.203125 C 7.234375 -2.640625 7.359375 -3.144531 7.359375 -3.71875 C 7.359375 -4.300781 7.234375 -4.804688 6.984375 -5.234375 C 6.742188 -5.671875 6.40625 -6.015625 5.96875 -6.265625 C 5.539062 -6.515625 5.039062 -6.640625 4.46875 -6.640625 C 3.894531 -6.640625 3.390625 -6.515625 2.953125 -6.265625 C 2.523438 -6.015625 2.1875 -5.671875 1.9375 -5.234375 C 1.695312 -4.804688 1.578125 -4.300781 1.578125 -3.71875 Z M 1.578125 -3.71875 "/></g></g></g><g fill="#ffffff" fill-opacity="1"><g transform="translate(178.186274, 218.154859)"><g><path d="M 3.140625 0 L 0.1875 -7.4375 L 1.171875 -7.4375 L 2.40625 -4.296875 L 3.578125 -1.34375 L 4.734375 -4.296875 L 5.984375 -7.4375 L 6.96875 -7.4375 L 4.015625 0 Z M 3.140625 0 "/></g></g></g><g fill="#ffffff" fill-opacity="1"><g transform="translate(187.11619, 218.154859)"><g><path d="M 0.1875 0 L 3.234375 -7.4375 L 4.109375 -7.4375 L 7.171875 0 L 6.1875 0 L 5.484375 -1.6875 L 1.859375 -1.6875 L 1.171875 0 Z M 2.21875 -2.5625 L 5.125 -2.5625 L 3.671875 -6.125 Z M 2.21875 -2.5625 "/></g></g></g><g fill="#ffffff" fill-opacity="1"><g transform="translate(196.247831, 218.154859)"><g><path d="M 2.875 0 L 2.875 -6.546875 L 0.359375 -6.546875 L 0.359375 -7.4375 L 6.328125 -7.4375 L 6.328125 -6.546875 L 3.8125 -6.546875 L 3.8125 0 Z M 2.875 0 "/></g></g></g><g fill="#ffffff" fill-opacity="1"><g transform="translate(204.721208, 218.154859)"><g><path d="M 1.078125 0 L 1.078125 -7.4375 L 2.015625 -7.4375 L 2.015625 0 Z M 1.078125 0 "/></g></g></g><g fill="#ffffff" fill-opacity="1"><g transform="translate(209.605946, 218.154859)"><g><path d="M 1.078125 0 L 1.078125 -7.4375 L 1.96875 -7.4375 L 6.078125 -1.609375 L 6.078125 -7.4375 L 6.984375 -7.4375 L 6.984375 0 L 6.125 0 L 2.015625 -5.828125 L 2.015625 0 Z M 1.078125 0 "/></g></g></g><g fill="#ffffff" fill-opacity="1"><g transform="translate(219.45956, 218.154859)"><g><path d="M 4.40625 0.140625 C 3.851562 0.140625 3.347656 0.046875 2.890625 -0.140625 C 2.429688 -0.335938 2.03125 -0.609375 1.6875 -0.953125 C 1.34375 -1.296875 1.078125 -1.703125 0.890625 -2.171875 C 0.703125 -2.640625 0.609375 -3.15625 0.609375 -3.71875 C 0.609375 -4.28125 0.703125 -4.789062 0.890625 -5.25 C 1.078125 -5.71875 1.335938 -6.125 1.671875 -6.46875 C 2.015625 -6.820312 2.414062 -7.09375 2.875 -7.28125 C 3.332031 -7.476562 3.832031 -7.578125 4.375 -7.578125 C 4.945312 -7.578125 5.472656 -7.472656 5.953125 -7.265625 C 6.429688 -7.054688 6.84375 -6.769531 7.1875 -6.40625 C 7.539062 -6.039062 7.796875 -5.613281 7.953125 -5.125 L 6.9375 -5.125 C 6.707031 -5.601562 6.367188 -5.972656 5.921875 -6.234375 C 5.484375 -6.503906 4.976562 -6.640625 4.40625 -6.640625 C 3.851562 -6.640625 3.363281 -6.515625 2.9375 -6.265625 C 2.507812 -6.015625 2.175781 -5.671875 1.9375 -5.234375 C 1.695312 -4.796875 1.578125 -4.289062 1.578125 -3.71875 C 1.578125 -3.144531 1.695312 -2.640625 1.9375 -2.203125 C 2.1875 -1.765625 2.523438 -1.421875 2.953125 -1.171875 C 3.378906 -0.921875 3.867188 -0.796875 4.421875 -0.796875 C 4.921875 -0.796875 5.363281 -0.894531 5.75 -1.09375 C 6.144531 -1.289062 6.460938 -1.5625 6.703125 -1.90625 C 6.953125 -2.257812 7.109375 -2.671875 7.171875 -3.140625 L 4.140625 -3.140625 L 4.140625 -4.03125 L 8.1875 -4.03125 C 8.195312 -3.21875 8.039062 -2.5 7.71875 -1.875 C 7.40625 -1.25 6.960938 -0.753906 6.390625 -0.390625 C 5.828125 -0.0351562 5.164062 0.140625 4.40625 0.140625 Z M 4.40625 0.140625 "/></g></g></g><g fill="#ffffff" fill-opacity="1"><g transform="translate(230.003299, 218.154859)"><g/></g></g><g fill="#ffffff" fill-opacity="1"><g transform="translate(234.420878, 218.154859)"><g><path d="M 1.078125 0 L 1.078125 -7.4375 L 3.609375 -7.4375 C 4.160156 -7.4375 4.644531 -7.332031 5.0625 -7.125 C 5.476562 -6.925781 5.796875 -6.640625 6.015625 -6.265625 C 6.242188 -5.890625 6.359375 -5.445312 6.359375 -4.9375 C 6.359375 -4.425781 6.242188 -3.984375 6.015625 -3.609375 C 5.796875 -3.242188 5.476562 -2.957031 5.0625 -2.75 C 4.644531 -2.539062 4.160156 -2.4375 3.609375 -2.4375 L 2.015625 -2.4375 L 2.015625 0 Z M 2.015625 -3.3125 L 3.578125 -3.3125 C 4.796875 -3.3125 5.40625 -3.851562 5.40625 -4.9375 C 5.40625 -6.007812 4.796875 -6.546875 3.578125 -6.546875 L 2.015625 -6.546875 Z M 2.015625 -3.3125 "/></g></g></g><g fill="#ffffff" fill-opacity="1"><g transform="translate(242.989802, 218.154859)"><g><path d="M 1.078125 0 L 1.078125 -7.4375 L 2.015625 -7.4375 L 2.015625 -0.890625 L 5.625 -0.890625 L 5.625 0 Z M 1.078125 0 "/></g></g></g><g fill="#ffffff" fill-opacity="1"><g transform="translate(250.730585, 218.154859)"><g><path d="M 0.1875 0 L 3.234375 -7.4375 L 4.109375 -7.4375 L 7.171875 0 L 6.1875 0 L 5.484375 -1.6875 L 1.859375 -1.6875 L 1.171875 0 Z M 2.21875 -2.5625 L 5.125 -2.5625 L 3.671875 -6.125 Z M 2.21875 -2.5625 "/></g></g></g><g fill="#ffffff" fill-opacity="1"><g transform="translate(259.862226, 218.154859)"><g><path d="M 1.078125 0 L 1.078125 -7.4375 L 1.96875 -7.4375 L 6.078125 -1.609375 L 6.078125 -7.4375 L 6.984375 -7.4375 L 6.984375 0 L 6.125 0 L 2.015625 -5.828125 L 2.015625 0 Z M 1.078125 0 "/></g></g></g><g fill="#ffffff" fill-opacity="1"><g transform="translate(269.71584, 218.154859)"><g><path d="M 3.5625 0.140625 C 2.96875 0.140625 2.453125 0.0390625 2.015625 -0.15625 C 1.578125 -0.363281 1.238281 -0.648438 1 -1.015625 C 0.757812 -1.378906 0.640625 -1.800781 0.640625 -2.28125 L 1.578125 -2.28125 C 1.585938 -1.8125 1.773438 -1.4375 2.140625 -1.15625 C 2.503906 -0.882812 2.976562 -0.75 3.5625 -0.75 C 4.082031 -0.75 4.492188 -0.851562 4.796875 -1.0625 C 5.109375 -1.269531 5.265625 -1.554688 5.265625 -1.921875 C 5.265625 -2.265625 5.113281 -2.539062 4.8125 -2.75 C 4.519531 -2.96875 4.039062 -3.148438 3.375 -3.296875 C 2.457031 -3.523438 1.785156 -3.8125 1.359375 -4.15625 C 0.929688 -4.5 0.71875 -4.957031 0.71875 -5.53125 C 0.71875 -6.15625 0.957031 -6.648438 1.4375 -7.015625 C 1.914062 -7.390625 2.5625 -7.578125 3.375 -7.578125 C 4.207031 -7.578125 4.867188 -7.367188 5.359375 -6.953125 C 5.847656 -6.535156 6.09375 -5.960938 6.09375 -5.234375 L 5.171875 -5.234375 C 5.160156 -5.679688 4.992188 -6.035156 4.671875 -6.296875 C 4.359375 -6.554688 3.925781 -6.6875 3.375 -6.6875 C 2.84375 -6.6875 2.425781 -6.582031 2.125 -6.375 C 1.820312 -6.164062 1.671875 -5.882812 1.671875 -5.53125 C 1.671875 -5.21875 1.8125 -4.957031 2.09375 -4.75 C 2.375 -4.539062 2.878906 -4.347656 3.609375 -4.171875 C 4.554688 -3.941406 5.226562 -3.648438 5.625 -3.296875 C 6.03125 -2.941406 6.234375 -2.492188 6.234375 -1.953125 C 6.234375 -1.304688 5.988281 -0.796875 5.5 -0.421875 C 5.019531 -0.046875 4.375 0.140625 3.5625 0.140625 Z M 3.5625 0.140625 "/></g></g></g><g fill="#ffffff" fill-opacity="1"><g transform="translate(278.369701, 218.154859)"><g/></g></g><g fill="#ffffff" fill-opacity="1"><g transform="translate(282.787281, 218.154859)"><g><path d="M 2.609375 0 L 0.203125 -7.4375 L 1.171875 -7.4375 L 2.203125 -4.234375 L 3.078125 -1.5 L 5.28125 -7.4375 L 6.15625 -7.4375 L 8.359375 -1.484375 L 10.28125 -7.4375 L 11.25 -7.4375 L 8.828125 0 L 7.953125 0 L 6.953125 -2.703125 L 5.71875 -6.03125 L 3.484375 0 Z M 2.609375 0 "/></g></g></g><g fill="#ffffff" fill-opacity="1"><g transform="translate(296.017188, 218.154859)"><g><path d="M 1.078125 0 L 1.078125 -7.4375 L 2.015625 -7.4375 L 2.015625 0 Z M 1.078125 0 "/></g></g></g><g fill="#ffffff" fill-opacity="1"><g transform="translate(300.901926, 218.154859)"><g><path d="M 2.875 0 L 2.875 -6.546875 L 0.359375 -6.546875 L 0.359375 -7.4375 L 6.328125 -7.4375 L 6.328125 -6.546875 L 3.8125 -6.546875 L 3.8125 0 Z M 2.875 0 "/></g></g></g><g fill="#ffffff" fill-opacity="1"><g transform="translate(309.375303, 218.154859)"><g><path d="M 5.953125 0 L 5.953125 -3.34375 L 2.015625 -3.34375 L 2.015625 0 L 1.078125 0 L 1.078125 -7.4375 L 2.015625 -7.4375 L 2.015625 -4.234375 L 5.953125 -4.234375 L 5.953125 -7.4375 L 6.890625 -7.4375 L 6.890625 0 Z M 5.953125 0 "/></g></g></g><g fill="#ffffff" fill-opacity="1"><g transform="translate(319.133359, 218.154859)"><g/></g></g><g fill="#ffffff" fill-opacity="1"><g transform="translate(323.550938, 218.154859)"><g><path d="M 0.1875 0 L 3.234375 -7.4375 L 4.109375 -7.4375 L 7.171875 0 L 6.1875 0 L 5.484375 -1.6875 L 1.859375 -1.6875 L 1.171875 0 Z M 2.21875 -2.5625 L 5.125 -2.5625 L 3.671875 -6.125 Z M 2.21875 -2.5625 "/></g></g></g><g fill="#ffffff" fill-opacity="1"><g transform="translate(332.682579, 218.154859)"><g><path d="M 1.078125 0 L 1.078125 -7.4375 L 2.015625 -7.4375 L 2.015625 0 Z M 1.078125 0 "/></g></g></g></svg>